<svg id="LOGO" xmlns="http://www.w3.org/2000/svg" viewBox="0 0 141.73 85.04"><defs><style>.cls-1{fill:#fff;}</style></defs><title>f-bit_WHITE</title><path class="cls-1" d="M17.75,98.21a8.44,8.44,0,0,1-3-1.64l.79-1.36a9.16,9.16,0,0,0,2.82,1.53,10.65,10.65,0,0,0,3.61.61,7.09,7.09,0,0,0,4-.88A2.81,2.81,0,0,0,27.2,94a2.31,2.31,0,0,0-.7-1.77,4.36,4.36,0,0,0-1.73-1c-.69-.2-1.63-.42-2.84-.64a24,24,0,0,1-3.42-.82,5.42,5.42,0,0,1-2.23-1.43,3.87,3.87,0,0,1-.92-2.73,4.27,4.27,0,0,1,1.76-3.49,8,8,0,0,1,5-1.38,12.28,12.28,0,0,1,3.39.48,8.61,8.61,0,0,1,2.74,1.26l-.79,1.36A8.14,8.14,0,0,0,25,82.71a10.26,10.26,0,0,0-2.87-.41,6.37,6.37,0,0,0-3.76.92,2.84,2.84,0,0,0-1.27,2.42,2.43,2.43,0,0,0,.72,1.86,4.45,4.45,0,0,0,1.76,1,29.42,29.42,0,0,0,2.93.7,26.09,26.09,0,0,1,3.37.8A5.25,5.25,0,0,1,28,91.36,3.71,3.71,0,0,1,28.91,94a4.14,4.14,0,0,1-1.85,3.54,8.75,8.75,0,0,1-5.2,1.33,13,13,0,0,1-4.11-.64" transform="translate(-14.71 -13.81)"/><path class="cls-1" d="M44.36,96.37a6.83,6.83,0,0,0,2.56-2.66,8.4,8.4,0,0,0,0-7.76,6.83,6.83,0,0,0-2.56-2.66,7.6,7.6,0,0,0-7.36,0A6.92,6.92,0,0,0,34.43,86a8.48,8.48,0,0,0,0,7.76A6.92,6.92,0,0,0,37,96.37a7.6,7.6,0,0,0,7.36,0M36.11,97.7a8.46,8.46,0,0,1-3.2-3.22,9.9,9.9,0,0,1,0-9.3A8.39,8.39,0,0,1,36.11,82a9.58,9.58,0,0,1,9.14,0,8.46,8.46,0,0,1,3.2,3.22,9.9,9.9,0,0,1,0,9.3,8.53,8.53,0,0,1-3.2,3.22,9.66,9.66,0,0,1-9.14,0" transform="translate(-14.71 -13.81)"/><path class="cls-1" d="M56.93,78.35v2.59h5.72V82.4H57V98.72H55.26V82.4H52V80.94h3.29V78.21a4.55,4.55,0,0,1,5-4.9,6.81,6.81,0,0,1,2,.29,3.85,3.85,0,0,1,1.55.87l-.68,1.29a4,4,0,0,0-2.77-1q-3.36,0-3.36,3.57" transform="translate(-14.71 -13.81)"/><path class="cls-1" d="M75,97.59a4.3,4.3,0,0,1-1.62.94,6.36,6.36,0,0,1-2,.32A4.42,4.42,0,0,1,66.48,94V82.4H63.2V80.94h3.28V77.06h1.71v3.88h5.68V82.4H68.19V93.85A3.74,3.74,0,0,0,69,96.49a3.23,3.23,0,0,0,2.48.9,4,4,0,0,0,2.77-1Z" transform="translate(-14.71 -13.81)"/><polygon class="cls-1" points="88.66 67.13 82.64 82.96 76.58 67.13 75.11 67.13 69.02 83 63.06 67.13 61.42 67.13 68.2 84.9 69.77 84.9 75.83 69.48 81.85 84.9 83.46 84.9 90.23 67.13 88.66 67.13"/><path class="cls-1" d="M117.21,96.44a6.2,6.2,0,0,0,2.34-3V90.13h-6.09a6,6,0,0,0-3.81,1,3.17,3.17,0,0,0-1.18,2.62,3.26,3.26,0,0,0,1.3,2.74,5.84,5.84,0,0,0,3.66,1,6.76,6.76,0,0,0,3.78-1m2.27-14a6.5,6.5,0,0,1,1.78,5V98.72h-1.64V95.55a5.81,5.81,0,0,1-2.5,2.43,8.26,8.26,0,0,1-3.93.87,7.28,7.28,0,0,1-4.71-1.39,4.8,4.8,0,0,1-.13-7.27q1.59-1.38,5.08-1.38h6.12V87.38a5,5,0,0,0-1.35-3.78,5.47,5.47,0,0,0-4-1.3,9.8,9.8,0,0,0-3.41.61,8.59,8.59,0,0,0-2.75,1.64l-.86-1.23a9.6,9.6,0,0,1,3.22-1.85,11.61,11.61,0,0,1,3.94-.67,7.08,7.08,0,0,1,5.09,1.69" transform="translate(-14.71 -13.81)"/><path class="cls-1" d="M132.52,81.84a8.17,8.17,0,0,1,4.24-1v1.67l-.41,0a6,6,0,0,0-4.65,1.85A7.42,7.42,0,0,0,130,89.45v9.27h-1.71V80.94H130v3.88a6.21,6.21,0,0,1,2.57-3" transform="translate(-14.71 -13.81)"/><path class="cls-1" d="M144.53,83.14a6.32,6.32,0,0,0-2.41,2.35,7.54,7.54,0,0,0-1,3.42h13.68a7.21,7.21,0,0,0-1-3.41,6.75,6.75,0,0,0-2.43-2.35,7.22,7.22,0,0,0-6.78,0m11.88,7.1H141a7.46,7.46,0,0,0,1.06,3.69,6.77,6.77,0,0,0,2.69,2.51,8.1,8.1,0,0,0,3.81.88,8.21,8.21,0,0,0,3.24-.63,6.28,6.28,0,0,0,2.48-1.86l1,1.13a7.57,7.57,0,0,1-2.92,2.14,10.28,10.28,0,0,1-8.58-.4,8.38,8.38,0,0,1-3.26-3.21,9.1,9.1,0,0,1-1.19-4.66,9.63,9.63,0,0,1,1.12-4.65A8.18,8.18,0,0,1,143.54,82a8.88,8.88,0,0,1,8.74,0,8.21,8.21,0,0,1,3.05,3.19,9.55,9.55,0,0,1,1.11,4.63Z" transform="translate(-14.71 -13.81)"/><path class="cls-1" d="M25.82,43.54H35.91v8.74H26.12V68.39H14.71v-40q0-6.69,4-10.63t11.23-3.93a21.29,21.29,0,0,1,4.86.55,11.9,11.9,0,0,1,3.84,1.56l-3,8.23A7.85,7.85,0,0,0,31,22.76c-3.46,0-5.19,1.9-5.19,5.68Z" transform="translate(-14.71 -13.81)"/><path class="cls-1" d="M89.24,56.71a10.92,10.92,0,0,0,2.82-7.89,11,11,0,0,0-2.82-7.9,10.26,10.26,0,0,0-14.4,0A11,11,0,0,0,72,48.82a10.92,10.92,0,0,0,2.82,7.89,10.26,10.26,0,0,0,14.4,0M94,31.17a18.08,18.08,0,0,1,7.06,7.06,21.18,21.18,0,0,1,2.56,10.59,21.18,21.18,0,0,1-2.56,10.59A18.15,18.15,0,0,1,94,66.47,20.13,20.13,0,0,1,84,69q-8.12,0-12.35-5.1v4.51H60.76v-54H72.17v19Q76.48,28.67,84,28.66a20.13,20.13,0,0,1,10,2.51" transform="translate(-14.71 -13.81)"/><rect class="cls-1" x="94.35" y="16.31" width="11.41" height="38.27"/><rect class="cls-1" x="94.35" y="6.77" width="11.41" height="6.57"/><path class="cls-1" d="M156.44,66.5a11.63,11.63,0,0,1-4.13,1.86,21.14,21.14,0,0,1-5.16.62q-7,0-10.85-3.57t-3.84-10.48V38.85h-6.07V30.12h6.07V20.58h11.4v9.54h9.8v8.73h-9.8V54.79a5.34,5.34,0,0,0,1.28,3.82A4.79,4.79,0,0,0,148.76,60a7.38,7.38,0,0,0,4.61-1.45Z" transform="translate(-14.71 -13.81)"/><rect class="cls-1" x="25.68" y="30.81" width="15.9" height="6.57"/></svg>